<svg width="50" height="50" viewBox="0 0 50 50" fill="none" xmlns="http://www.w3.org/2000/svg">
<circle cx="25" cy="25" r="25" fill="#D6EB31"/>
<path d="M31.75 16C33.1562 16 34.3281 16.9375 34.6562 18.25H35.125C37 18.25 38.5 19.75 38.5 21.625V23.875H38.875C39.4844 23.875 40 24.3906 40 25C40 25.6094 39.4844 26.125 38.875 26.125H38.5V28.375C38.5 30.25 37 31.75 35.125 31.75H34.6562C34.3281 33.0625 33.1562 34 31.75 34C30.1094 34 28.75 32.6406 28.75 31V26.125H21.25V31C21.25 32.6406 19.8906 34 18.25 34C16.8438 34 15.6719 33.0625 15.3438 31.75H14.875C13 31.75 11.5 30.25 11.5 28.375V26.125H11.125C10.5156 26.125 10 25.6094 10 25C10 24.3906 10.5156 23.875 11.125 23.875H11.5V21.625C11.5 19.75 13 18.25 14.875 18.25H15.3438C15.6719 16.9375 16.8438 16 18.25 16C19.8906 16 21.25 17.3594 21.25 19V23.875H28.75V19C28.75 17.3594 30.1094 16 31.75 16ZM18.25 18.25C17.8281 18.25 17.5 18.5781 17.5 19V31C17.5 31.4219 17.8281 31.75 18.25 31.75C18.6719 31.75 19 31.4219 19 31V19C19 18.5781 18.6719 18.25 18.25 18.25ZM31.75 18.25C31.3281 18.25 31 18.5781 31 19V31C31 31.4219 31.3281 31.75 31.75 31.75C32.1719 31.75 32.5 31.4219 32.5 31V19C32.5 18.5781 32.1719 18.25 31.75 18.25ZM14.875 20.5C14.2656 20.5 13.75 21.0156 13.75 21.625V28.375C13.75 28.9844 14.2656 29.5 14.875 29.5H15.25V20.5H14.875ZM34.75 29.5H35.125C35.7344 29.5 36.25 28.9844 36.25 28.375V21.625C36.25 21.0156 35.7344 20.5 35.125 20.5H34.75V29.5Z" fill="black"/>
</svg>
